<svg xmlns="http://www.w3.org/2000/svg" xmlns:xlink="http://www.w3.org/1999/xlink" width="256" height="190" preserveAspectRatio="xMidYMid" version="1.1" viewBox="0 0 256 190"><g><rect width="256" height="189.072" x="0" y="0" fill="#000"/><path fill="#FFF" d="M49.6383442,110.152505 L49.6383442,79.4771242 L19.2418301,79.4771242 L19.2418301,47.6862745 L49.6383442,47.6862745 L49.6383442,16.7320261 L81.4291939,16.7320261 L81.4291939,47.6862745 L111.546841,47.6862745 L111.546841,16.7320261 L143.337691,16.7320261 L143.337691,47.6862745 L174.291939,47.6862745 L174.291939,79.4771242 L143.337691,79.4771242 L143.337691,110.152505 L174.291939,110.152505 L174.291939,141.943355 L143.337691,141.943355 L143.337691,171.782135 L111.546841,171.782135 L111.546841,141.943355 L81.4291939,141.943355 L81.4291939,171.782135 L49.6383442,171.782135 L49.6383442,141.943355 L19.2418301,141.943355 L19.2418301,110.152505 L49.6383442,110.152505 L49.6383442,110.152505 Z M81.4291939,110.152505 L81.4291939,79.4771242 L111.546841,79.4771242 L111.546841,110.152505 L81.4291939,110.152505 L81.4291939,110.152505 Z"/><rect width="31.791" height="93.42" x="204.967" y="16.732" fill="#FFF"/><rect width="31.791" height="29.839" x="204.967" y="141.943" fill="#FFF"/></g></svg>