<svg xmlns="http://www.w3.org/2000/svg" xmlns:xlink="http://www.w3.org/1999/xlink" width="256" height="256" preserveAspectRatio="xMidYMid" version="1.1" viewBox="0 0 256 256"><defs><circle id="path-1" cx="128" cy="128" r="128"/><linearGradient id="linearGradient-3" x1="50%" x2="50%" y1="10.483%" y2="0%"><stop offset="0%" stop-color="#B70000"/><stop offset="100%" stop-color="#FF2E2E"/></linearGradient><linearGradient id="linearGradient-4" x1="94.226%" x2="34.906%" y1="28.491%" y2="61.944%"><stop offset="0%" stop-color="#B70000"/><stop offset="100%" stop-color="#FF2E2E"/></linearGradient><linearGradient id="linearGradient-5" x1="88.559%" x2="5.268%" y1="50%" y2="100%"><stop offset="0%" stop-color="#B70000"/><stop offset="100%" stop-color="#FF2E2E"/></linearGradient><linearGradient id="linearGradient-6" x1="95.265%" x2="11.984%" y1="9.313%" y2="62.083%"><stop offset="0%" stop-color="#B70000"/><stop offset="100%" stop-color="#FF2E2E"/></linearGradient><linearGradient id="linearGradient-7" x1="67.157%" x2="0%" y1="76.561%" y2="94.308%"><stop offset="0%" stop-color="#B70000"/><stop offset="100%" stop-color="#FF2E2E"/></linearGradient><linearGradient id="linearGradient-8" x1="80.669%" x2="0%" y1="52.178%" y2="50%"><stop offset="0%" stop-color="#B70000"/><stop offset="100%" stop-color="#FF2E2E"/></linearGradient><linearGradient id="linearGradient-9" x1="76.623%" x2="4.689%" y1="50%" y2="28.878%"><stop offset="0%" stop-color="#B70000"/><stop offset="100%" stop-color="#FF2E2E"/></linearGradient><linearGradient id="linearGradient-10" x1="93.74%" x2="8.898%" y1="5.415%" y2="10.995%"><stop offset="0%" stop-color="#B70000"/><stop offset="100%" stop-color="#FF2E2E"/></linearGradient><linearGradient id="linearGradient-11" x1="10.939%" x2="55.049%" y1="11.453%" y2="91.134%"><stop offset="0%" stop-color="#D13700"/><stop offset="100%" stop-color="#F94721"/></linearGradient><linearGradient id="linearGradient-12" x1="11.961%" x2="100%" y1="33.29%" y2="100%"><stop offset="0%" stop-color="#B70000"/><stop offset="100%" stop-color="#FF2E2E"/></linearGradient><linearGradient id="linearGradient-13" x1="4.797%" x2="78.89%" y1="0%" y2="76.442%"><stop offset="0%" stop-color="#B70000"/><stop offset="100%" stop-color="#FF2E2E"/></linearGradient><linearGradient id="linearGradient-14" x1="11.984%" x2="85.891%" y1="20.017%" y2="85.868%"><stop offset="0%" stop-color="#B70000"/><stop offset="100%" stop-color="#FF2E2E"/></linearGradient><linearGradient id="linearGradient-15" x1="0%" x2="95.693%" y1="3.653%" y2="50%"><stop offset="0%" stop-color="#B70000"/><stop offset="100%" stop-color="#FF2E2E"/></linearGradient><linearGradient id="linearGradient-16" x1="20.672%" x2="97.357%" y1="38.837%" y2="100%"><stop offset="0%" stop-color="#B70000"/><stop offset="100%" stop-color="#FF2E2E"/></linearGradient><linearGradient id="linearGradient-17" x1="25.056%" x2="100%" y1="10%" y2="88.645%"><stop offset="0%" stop-color="#B70000"/><stop offset="100%" stop-color="#FF2E2E"/></linearGradient></defs><g><mask id="mask-2" fill="#fff"><use xlink:href="#path-1"/></mask><g fill-rule="nonzero" mask="url(#mask-2)"><g transform="translate(-1.920000, 0.000000)"><circle cx="129.92" cy="128" r="128" fill="url(#linearGradient-3)"/><path fill="url(#linearGradient-4)" d="M30.6988749,208.871414 C32,215.68 68.16,250.304004 94.08,251.52 C94.08,251.52 97.5034707,236.909398 100.063471,212.589398 L30.6988749,208.871414 Z"/><path fill="#FD4B00" d="M30.6988749,208.871414 C32,215.68 68.16,250.304004 94.08,251.52 C94.08,251.52 97.5034707,236.909398 100.063471,212.589398 L30.6988749,208.871414 Z"/><path fill="url(#linearGradient-5)" d="M99.9123731,212.818748 C103.502435,198.322797 109.20876,176.927485 116.48,159.36 L30.6988749,208.871414 L99.9123731,212.818748 Z"/><path fill="#FD4B00" fill-opacity=".8" d="M99.9123731,212.818748 C103.502435,198.322797 109.20876,176.927485 116.48,159.36 L30.6988749,208.871414 L99.9123731,212.818748 Z"/><path fill="url(#linearGradient-6)" d="M116.148176,160.578611 L4.91106395,155.635793 C3.84,165.76 17.28,200.96 30.6988749,208.871414 L116.148176,160.578611 Z"/><path fill="#FD4B00" fill-opacity=".6" d="M116.148176,160.578611 L4.91106395,155.635793 C3.84,165.76 17.28,200.96 30.6988749,208.871414 L116.148176,160.578611 Z"/><path fill="url(#linearGradient-7)" d="M116.218114,160.969825 C120.85847,149.758618 137.275516,118.800397 139.52,115.2 L4.91106395,155.635793"/><path fill="#FD4B00" fill-opacity=".4" d="M116.218114,160.969825 C120.85847,149.758618 137.275516,118.800397 139.52,115.2 L4.91106395,155.635793"/><path fill="url(#linearGradient-8)" d="M142.59394,115.815689 L16.3973673,68.8110653 C-2.56,87.68 -2.56,145.92 4.91106395,155.635793 L142.59394,115.815689 Z"/><path fill="#FD4B00" fill-opacity=".2" d="M142.59394,115.815689 L16.3973673,68.8110653 C-2.56,87.68 -2.56,145.92 4.91106395,155.635793 L142.59394,115.815689 Z"/><path fill="url(#linearGradient-9)" d="M139.518489,115.434847 C158.718489,88.5548468 176.700771,63.5503944 189.44,49.28 L16.3973673,68.8110653 L139.518489,115.434847 Z"/><path fill="url(#linearGradient-10)" d="M188.43948,51.7141996 C201.337731,37.26567 209.92,27.52 209.92,27.52 L91.905152,27.6147153 L50.432002,27.6480005 C31.36,39.04 21.12,48.1655326 16.3973673,68.8110653 L188.43948,51.7141996 Z"/><path fill="#632003" fill-opacity=".1" d="M188.43948,51.7141996 C201.337731,37.26567 209.92,27.52 209.92,27.52 L91.905152,27.6147153 L50.432002,27.6480005 C31.36,39.04 21.12,48.1655326 16.3973673,68.8110653 L188.43948,51.7141996 Z"/><path fill="url(#linearGradient-11)" d="M177.196797,246.988808 C177.196797,246.988808 130.995596,223.894287 107.894995,212.347027 C106.70333,211.751352 76.6199066,243.966003 101.669953,252.863002 C126.72,261.76 160.64,256 177.196797,246.988808 Z"/><path fill="#FD4B00" d="M177.196797,246.988808 C177.196797,246.988808 130.995596,223.894287 107.894995,212.347027 C106.70333,211.751352 76.6199066,243.966003 101.669953,252.863002 C126.72,261.76 160.64,256 177.196797,246.988808 Z"/><path fill="url(#linearGradient-12)" d="M177.196797,246.988808 L122.88,162.56 C122.88,162.56 116.281068,179.628067 112,193.28 C108.62643,204.038006 106.233186,213.811296 106.740486,214.064879 C129.881688,225.632435 177.196797,246.988808 177.196797,246.988808 Z"/><path fill="#FD4B00" fill-opacity=".8" d="M177.196797,246.988808 L122.88,162.56 C122.88,162.56 116.281068,179.628067 112,193.28 C108.62643,204.038006 106.233186,213.811296 106.740486,214.064879 C129.881688,225.632435 177.196797,246.988808 177.196797,246.988808 Z"/><path fill="url(#linearGradient-13)" d="M177.193883,246.987055 C200.96,241.92 232.96,211.2 236.518399,198.886406 L122.88,163.2 L177.193883,246.987055 Z"/><path fill="#FD4B00" fill-opacity=".6" d="M177.193883,246.987055 C200.96,241.92 232.96,211.2 236.518399,198.886406 L122.88,163.2 L177.193883,246.987055 Z"/><path fill="url(#linearGradient-14)" d="M236.515385,198.886721 C236.515385,198.886721 176.994995,144.004381 146.800197,117.52657 C146.480956,117.246627 136.827184,132.298634 131.2,143.36 C125.481462,154.600941 122.090656,163.634383 122.614597,163.798185 C160.306881,175.582104 236.515385,198.886721 236.515385,198.886721 Z"/><path fill="#FD4B00" fill-opacity=".4" d="M236.515385,198.886721 C236.515385,198.886721 176.994995,144.004381 146.800197,117.52657 C146.480956,117.246627 136.827184,132.298634 131.2,143.36 C125.481462,154.600941 122.090656,163.634383 122.614597,163.798185 C160.306881,175.582104 236.515385,198.886721 236.515385,198.886721 Z"/><path fill="url(#linearGradient-15)" d="M236.518399,198.886406 C250.88,184.32 261.12,161.28 257.92,128 L144,117.76 L236.518399,198.886406 Z"/><path fill="#FD4B00" fill-opacity=".2" d="M236.518399,198.886406 C250.88,184.32 261.12,161.28 257.92,128 L144,117.76 L236.518399,198.886406 Z"/><path fill="url(#linearGradient-16)" d="M257.92,128 C257.92,128 216.241044,78.5972883 194.56,55.04 C194.31762,54.7766451 180.677912,70.5495069 169.6,85.12 C157.568545,100.944664 145.423093,118.995334 145.92,119.04 C182.9389,122.367542 257.92,128 257.92,128 Z"/><path fill="#FD4B00" fill-opacity="0" d="M257.92,128 C257.92,128 216.241044,78.5972883 194.56,55.04 C194.31762,54.7766451 180.677912,70.5495069 169.6,85.12 C157.568545,100.944664 145.423093,118.995334 145.92,119.04 C182.9389,122.367542 257.92,128 257.92,128 Z"/><path fill="url(#linearGradient-17)" d="M257.92,128 C257.92,69.12 226.56,40.32 215.663133,33.0755079 C215.663133,33.0755079 204.8,44.16 192.64,56.96 L257.92,128 Z"/><path fill="#632003" fill-opacity=".1" d="M257.92,128 C257.92,69.12 226.56,40.32 215.663133,33.0755079 C215.663133,33.0755079 204.8,44.16 192.64,56.96 L257.92,128 Z"/><path fill="#FFF" d="M50.304,27.6552173 L209.792,27.6552173 C192.127912,45.3193056 176.064072,63.6231226 161.6,82.5672173 C147.135928,101.511312 134.720052,121.415113 124.352,142.279217 C113.983948,163.143322 106.048028,185.095102 100.544,208.135217 C95.0399725,231.175332 92.4159987,255.495089 92.672,281.095217 L100.352,281.095217 C100.352,254.983087 103.167972,230.599331 108.8,207.943217 C114.432028,185.287104 122.367949,163.783319 132.608,143.431217 C142.848051,123.079116 155.263927,103.559311 169.856,84.8712173 C184.448073,66.1831238 200.575912,48.0073056 218.24,30.3432173 L218.24,19.9752173 L50.304,19.9752173 L50.304,27.6552173 Z"/></g></g></g></svg>