<svg xmlns="http://www.w3.org/2000/svg" xmlns:xlink="http://www.w3.org/1999/xlink" width="256" height="256" preserveAspectRatio="xMidYMid" version="1.1" viewBox="0 0 256 256"><defs><path id="path-1" d="M250.874183,115.639875 L140.360125,5.12581653 C133.525703,-1.70860551 122.474297,-1.70860551 115.639875,5.12581653 L5.12581653,115.639875 C-1.70860551,122.474297 -1.70860551,133.525703 5.12581653,140.360125 L115.639875,250.874183 C122.474297,257.708606 133.525703,257.708606 140.360125,250.874183 L250.874183,140.360125 C257.708606,133.525703 257.708606,122.474297 250.874183,115.639875 Z M128,157.082647 L98.917353,128 L128,98.917353 L157.082647,128 L128,157.082647 Z"/><path id="path-3" d="M250.579492,115.781385 L140.415465,5.61735822 C133.60269,-1.19541715 122.586287,-1.19541715 115.773511,5.61735822 L5.60948421,115.781385 C-1.20329116,122.594161 -1.20329116,133.610564 5.60948421,140.423339 L115.773511,250.587366 C122.586287,257.400142 133.60269,257.400142 140.415465,250.587366 L250.579492,140.423339 C257.392268,133.610564 257.392268,122.594161 250.579492,115.781385 Z M128.094488,157.092896 L99.1039547,128.102362 L128.094488,99.1118287 L157.085022,128.102362 L128.094488,157.092896 Z"/><path id="path-5" d="M250.579492,115.781385 L140.415465,5.61735822 C133.60269,-1.19541715 122.586287,-1.19541715 115.773511,5.61735822 L5.60948421,115.781385 C-1.20329116,122.594161 -1.20329116,133.610564 5.60948421,140.423339 L115.773511,250.587366 C122.586287,257.400142 133.60269,257.400142 140.415465,250.587366 L250.579492,140.423339 C257.392268,133.610564 257.392268,122.594161 250.579492,115.781385 Z M128.094488,157.092896 L99.1039547,128.102362 L128.094488,99.1118287 L157.085022,128.102362 L128.094488,157.092896 Z"/><path id="path-7" d="M250.579492,115.781385 L140.415465,5.61735822 C133.60269,-1.19541715 122.586287,-1.19541715 115.773511,5.61735822 L5.60948421,115.781385 C-1.20329116,122.594161 -1.20329116,133.610564 5.60948421,140.423339 L115.773511,250.587366 C122.586287,257.400142 133.60269,257.400142 140.415465,250.587366 L250.579492,140.423339 C257.392268,133.610564 257.392268,122.594161 250.579492,115.781385 Z M128.094488,157.092896 L99.1039547,128.102362 L128.094488,99.1118287 L157.085022,128.102362 L128.094488,157.092896 Z"/><linearGradient id="linearGradient-9" x1="24.691%" x2="74.734%" y1="26.425%" y2="80.127%"><stop offset="0%" stop-color="#1A237E" stop-opacity=".2"/><stop offset="100%" stop-color="#1A237E" stop-opacity=".02"/></linearGradient><linearGradient id="linearGradient-10" x1="24.155%" x2="76.174%" y1="24.155%" y2="76.174%"><stop offset="0%" stop-color="#FFF" stop-opacity=".1"/><stop offset="100%" stop-color="#FFF" stop-opacity="0"/></linearGradient><linearGradient id="linearGradient-11" x1="41.172%" x2="58.444%" y1="30.969%" y2="47.661%"><stop offset="0%" stop-color="#000" stop-opacity=".2"/><stop offset="100%" stop-color="#D8D8D8" stop-opacity="0"/></linearGradient><linearGradient id="linearGradient-12" x1="41.172%" x2="63.155%" y1="30.969%" y2="52.181%"><stop offset="0%" stop-color="#000" stop-opacity=".2"/><stop offset="100%" stop-color="#D8D8D8" stop-opacity="0"/></linearGradient></defs><g fill="none"><mask id="mask-2" fill="#fff"><use xlink:href="#path-1"/></mask><g mask="url(#mask-2)"><path fill="#4285F4" fill-rule="nonzero" d="M250.579492,115.781385 L209.992745,75.1946386 L181.002212,46.2041051 L128.094488,99.1118287 L157.085022,128.102362 L128.094488,157.092896 L75.1867646,210.000619 L115.773511,250.587366 C122.586287,257.400142 133.60269,257.400142 140.415465,250.587366 L181.002212,210.000619 L209.992745,181.010086 L250.579492,140.423339 C257.392268,133.610564 257.392268,122.594161 250.579492,115.781385 Z"/><path fill="#4FC3F7" fill-rule="nonzero" d="M181.002212,46.2041051 L140.415465,5.61735822 C133.60269,-1.19541715 122.586287,-1.19541715 115.773511,5.61735822 L75.1867646,46.2041051 L46.1962311,75.1946386 L5.60948421,115.781385 C-1.20329116,122.594161 -1.20329116,133.610564 5.60948421,140.423339 L46.1962311,181.010086 L75.1867646,210.000619 L128.094488,157.092896 L99.1039547,128.102362 L128.094488,99.1118287 L181.002212,46.2041051 Z"/><mask id="mask-4" fill="#fff"><use xlink:href="#path-3"/></mask><path fill="#FFF" fill-rule="nonzero" d="M115.773511,7.0668849 C122.586287,0.254109528 133.60269,0.254109528 140.415465,7.0668849 L250.579492,117.230912 C253.768451,120.419871 255.507883,124.623498 255.652836,128.827126 C255.797788,124.18864 254.203309,119.405202 250.579492,115.781385 L140.415465,5.61735822 C133.60269,-1.19541715 122.586287,-1.19541715 115.773511,5.61735822 L5.60948421,115.781385 C1.98566752,119.405202 0.39118818,124.18864 0.536140848,128.827126 C0.681093515,124.623498 2.42052552,120.419871 5.60948421,117.230912 L115.773511,7.0668849 Z" mask="url(#mask-4)" opacity=".2"/><mask id="mask-6" fill="#fff"><use xlink:href="#path-5"/></mask><path fill="#1A237E" fill-rule="nonzero" d="M250.579492,138.973812 L140.415465,249.13784 C133.60269,255.950615 122.586287,255.950615 115.773511,249.13784 L5.60948421,138.973812 C2.42052552,135.784854 0.681093515,131.581226 0.536140848,127.377599 C0.39118818,132.016084 1.98566752,136.799522 5.60948421,140.423339 L115.773511,250.587366 C122.586287,257.400142 133.60269,257.400142 140.415465,250.587366 L250.579492,140.423339 C254.203309,136.799522 255.797788,132.161037 255.652836,127.377599 C255.507883,131.581226 253.768451,135.784854 250.579492,138.973812 Z" mask="url(#mask-6)" opacity=".2"/><mask id="mask-8" fill="#fff"><use xlink:href="#path-7"/></mask><path fill="url(#linearGradient-9)" fill-rule="nonzero" d="M128.094488,157.092896 L75.1867646,210.000619 L115.773511,250.587366 C122.586287,257.400142 133.60269,257.400142 140.415465,250.587366 L181.002212,210.000619 L128.094488,157.092896 Z" mask="url(#mask-8)"/><path fill="url(#linearGradient-10)" fill-rule="nonzero" d="M250.579492,115.781385 L140.415465,5.61735822 C133.60269,-1.19541715 122.586287,-1.19541715 115.773511,5.61735822 L5.60948421,115.781385 C-1.20329116,122.594161 -1.20329116,133.610564 5.60948421,140.423339 L115.773511,250.587366 C122.586287,257.400142 133.60269,257.400142 140.415465,250.587366 L250.579492,140.423339 C257.392268,133.610564 257.392268,122.594161 250.579492,115.781385 Z M128.094488,157.092896 L99.1039547,128.102362 L128.094488,99.1118287 L157.085022,128.102362 L128.094488,157.092896 Z" mask="url(#mask-8)"/><rect width="278.309" height="278.309" x="-11.06" y="-11.052" mask="url(#mask-8)"/><polygon fill="url(#linearGradient-11)" fill-opacity=".8" fill-rule="nonzero" points="128.582 157.331 150.838 179.555 95.977 230.53 75.685 210.237" mask="url(#mask-8)"/><polygon fill="url(#linearGradient-12)" fill-opacity=".8" fill-rule="nonzero" points="180.991 46.465 203.248 68.689 148.386 119.664 128.094 99.371" mask="url(#mask-8)"/></g></g></svg>