<svg xmlns="http://www.w3.org/2000/svg" xmlns:xlink="http://www.w3.org/1999/xlink" width="256" height="240" preserveAspectRatio="xMidYMid" version="1.1" viewBox="0 0 256 240"><defs><path id="path-1" d="M0.0220781666,91.4663879 C0.00805862653,87.982602 3.29338858,83.5318776 10.0591368,78.6803234 L116.0116,2.70437809 C120.946117,-0.834044988 128.957886,-0.834409887 133.899175,2.7087341 L239.516538,78.4415072 C246.430406,83.3990858 249.709304,87.9422311 249.548215,91.4663879 L249.651811,91.4663879 L249.651811,102.96502 L0,102.96502 L0,91.4663879 L0.0220781666,91.4663879 L0.0220781666,91.4663879 Z"/><filter id="filter-2" width="101.2%" height="102.9%" x="-.6%" y="-1.5%" filterUnits="objectBoundingBox"><feOffset dx="0" dy="3" in="SourceAlpha" result="shadowOffsetInner1"/><feComposite in="shadowOffsetInner1" in2="SourceAlpha" k2="-1" k3="1" operator="arithmetic" result="shadowInnerInner1"/><feColorMatrix in="shadowInnerInner1" type="matrix" values="0 0 0 0 1 0 0 0 0 1 0 0 0 0 1 0 0 0 0.282269022 0"/></filter><path id="path-3" d="M0,97.7383688 L219.295825,238.857939 L13.0561451,238.857939 C5.84442109,238.857939 0,233.013128 0,225.803189 L0,97.7383688 Z"/><filter id="filter-4" width="105.5%" height="108.5%" x="-1.4%" y="-5.7%" filterUnits="objectBoundingBox"><feOffset dx="3" dy="-2" in="SourceAlpha" result="shadowOffsetOuter1"/><feGaussianBlur in="shadowOffsetOuter1" result="shadowBlurOuter1" stdDeviation="1.5"/><feColorMatrix in="shadowBlurOuter1" type="matrix" values="0 0 0 0 0.181283504 0 0 0 0 0.347530335 0 0 0 0 0.727242827 0 0 0 0.4 0"/></filter><path id="path-5" d="M249.651811,97.7383688 L249.651811,225.803189 C249.651811,233.013128 243.804046,238.857939 236.595953,238.857939 L13.0844764,238.857939 L249.651811,97.7383688 Z"/><filter id="filter-6" width="105.1%" height="108.5%" x="-1.3%" y="-6.4%" filterUnits="objectBoundingBox"><feOffset dx="3" dy="-3" in="SourceAlpha" result="shadowOffsetOuter1"/><feGaussianBlur in="shadowOffsetOuter1" result="shadowBlurOuter1" stdDeviation="1.5"/><feColorMatrix in="shadowBlurOuter1" type="matrix" values="0 0 0 0 0.181283504 0 0 0 0 0.347530335 0 0 0 0 0.727242827 0 0 0 0.1 0"/></filter><filter id="filter-7" width="103.8%" height="106.4%" x="-.6%" y="-5.3%" filterUnits="objectBoundingBox"><feOffset dx="0" dy="3" in="SourceAlpha" result="shadowOffsetInner1"/><feComposite in="shadowOffsetInner1" in2="SourceAlpha" k2="-1" k3="1" operator="arithmetic" result="shadowInnerInner1"/><feColorMatrix in="shadowInnerInner1" type="matrix" values="0 0 0 0 1 0 0 0 0 1 0 0 0 0 1 0 0 0 0.129840353 0"/></filter><filter id="filter-8" width="720%" height="182.7%" x="-310%" y="-41.3%" filterUnits="objectBoundingBox"><feGaussianBlur in="SourceGraphic" stdDeviation="15"/></filter><linearGradient id="linearGradient-9" x1="33.969%" x2="97.74%" y1="100%" y2="11.915%"><stop offset="0%" stop-color="#335FCF"/><stop offset="0%" stop-color="#3558B1"/><stop offset="40.899%" stop-color="#3A4768"/><stop offset="83.991%" stop-color="#3A4768"/><stop offset="84.011%" stop-color="#687EB7"/><stop offset="84.024%" stop-color="#CBCBCB"/><stop offset="84.078%" stop-color="#CBCBCB"/><stop offset="84.272%" stop-color="#CBCBCB"/><stop offset="100%" stop-color="#CBCBCB"/></linearGradient><polygon id="path-10" points="123.968 128.707 76.649 81.375 92.545 65.475 123.916 96.904 200.818 19.98 216.715 35.881 139.23 113.386 137.332 115.285"/><filter id="filter-11" width="103.6%" height="104.6%" x="-1.8%" y="-2.3%" filterUnits="objectBoundingBox"><feOffset dx="0" dy="5" in="SourceAlpha" result="shadowOffsetInner1"/><feComposite in="shadowOffsetInner1" in2="SourceAlpha" k2="-1" k3="1" operator="arithmetic" result="shadowInnerInner1"/><feColorMatrix in="shadowInnerInner1" type="matrix" values="0 0 0 0 1 0 0 0 0 1 0 0 0 0 1 0 0 0 0.5 0"/></filter></defs><g><g><use fill="#3760C9" fill-rule="evenodd" xlink:href="#path-1"/><use fill="#000" fill-opacity="1" filter="url(#filter-2)" xlink:href="#path-1"/></g><path fill="#3F72DB" d="M0,97.7383688 L249.651811,97.7383688 L249.651811,165.795878 L249.651811,213.528672 C249.651811,219.259406 243.794895,223.904872 236.570024,223.904872 L13.0817864,223.904872 C5.85655066,223.904872 0,219.259289 0,213.528672 L0,165.795878 L0,97.7383688 Z"/><g><use fill="#000" fill-opacity="1" filter="url(#filter-4)" xlink:href="#path-3"/><use fill="#36BBF7" fill-rule="evenodd" xlink:href="#path-3"/></g><g><use fill="#000" fill-opacity="1" filter="url(#filter-6)" xlink:href="#path-5"/><use fill="#96DDFC" fill-rule="evenodd" xlink:href="#path-5"/><use fill="#000" fill-opacity="1" filter="url(#filter-7)" xlink:href="#path-5"/></g><polygon fill="#203364" points="156.146 41.289 153.616 137.514 168.133 137.514 167.38 28.683" filter="url(#filter-8)" transform="translate(160.874498, 83.098782) rotate(45.000000) translate(-160.874498, -83.098782)"/><path fill="#CBCBCB" d="M124.104507,130.02941 L151.389808,156.615527 L249.616582,98.2474883 C249.616582,98.2474883 249.997739,91.241481 248.538286,88.1033084 C247.197505,85.2203079 241.215882,80.183969 241.215882,80.183969 L201.216315,51.4737465 L124.104507,130.02941 Z" style="mix-blend-mode:multiply"/><polygon fill="url(#linearGradient-9)" points="123.968 130.253 76.649 82.921 92.545 67.02 123.916 98.449 200.818 21.526 217.14 36.525 202.065 51.696 139.23 114.932 137.332 116.83"/><g><use fill="#E5E5E5" fill-rule="evenodd" xlink:href="#path-10"/><use fill="#000" fill-opacity="1" filter="url(#filter-11)" xlink:href="#path-10"/></g></g></svg>