<svg xmlns="http://www.w3.org/2000/svg" xmlns:xlink="http://www.w3.org/1999/xlink" width="256" height="256" preserveAspectRatio="xMidYMid" version="1.1" viewBox="0 0 256 256"><defs><radialGradient id="radialGradient-1" cx="71.139%" cy="30.656%" r="62.855%" fx="71.139%" fy="30.656%"><stop offset="0%" stop-color="#8D5391"/><stop offset="100%" stop-color="#56185B"/><stop offset="100%" stop-color="#55175A"/></radialGradient><linearGradient id="linearGradient-2" x1="5.177%" x2="94.272%" y1="21.825%" y2="78.175%"><stop offset="0%" stop-color="#6C8A55"/><stop offset="100%" stop-color="#5E7A44"/></linearGradient><filter id="filter-3" width="200%" height="200%" x="-50%" y="-50%" filterUnits="objectBoundingBox"><feOffset dx="4" dy="6" in="SourceAlpha" result="shadowOffsetOuter1"/><feGaussianBlur in="shadowOffsetOuter1" result="shadowBlurOuter1" stdDeviation="3"/><feColorMatrix in="shadowBlurOuter1" result="shadowMatrixOuter1" type="matrix" values="0 0 0 0 0 0 0 0 0 0 0 0 0 0 0 0 0 0 0.21 0"/><feMerge><feMergeNode in="shadowMatrixOuter1"/><feMergeNode in="SourceGraphic"/></feMerge></filter><linearGradient id="linearGradient-4" x1="100%" x2="0%" y1="73.958%" y2="23.824%"><stop offset="0%" stop-color="#90C567"/><stop offset="58.976%" stop-color="#A2CE7F"/><stop offset="100%" stop-color="#98C871"/></linearGradient></defs><g><path fill="url(#radialGradient-1)" d="M256,128 C256,198.692429 198.692429,256 128,256 C57.3075712,256 0,198.692429 0,128 C0,57.3075712 57.3075712,0 128,0 C198.692429,0 256,57.3075712 256,128"/><path fill="url(#linearGradient-2)" d="M127.001949,0.008408577 C184.888889,-0.0746791423 256.083088,58.3112858 228.803119,145.973321 C164.262425,132.832237 115.191766,76.2761981 127.001949,0.008408577" filter="url(#filter-3)"/><path fill="url(#linearGradient-4)" d="M146.493031,2.09630565 C197.988204,11.8602355 244.397561,63.5093583 233.356625,126.506317 C181.270855,117.216961 136.055167,68.9427462 146.493031,2.09630565"/></g></svg>