<svg xmlns="http://www.w3.org/2000/svg" xmlns:xlink="http://www.w3.org/1999/xlink" width="256" height="222" preserveAspectRatio="xMidYMid" version="1.1" viewBox="0 0 256 222"><defs><radialGradient id="radialGradient-1" cx="59.777%" cy="-7.2%" r="88.422%" fx="59.777%" fy="-7.2%"><stop offset="0%" stop-color="#FBE3D0"/><stop offset="30.1%" stop-color="#F7DBC6"/><stop offset="77.9%" stop-color="#EEC7AD"/><stop offset="100%" stop-color="#E3B092"/></radialGradient><radialGradient id="radialGradient-2" cx="4.725%" cy="121.675%" r="40.68%" fx="4.725%" fy="121.675%"><stop offset="0%" stop-color="#C2A286"/><stop offset="19.5%" stop-color="#CFB6A0"/><stop offset="55.4%" stop-color="#E5D6CB"/><stop offset="83.5%" stop-color="#F2EBE6"/><stop offset="100%" stop-color="#F7F2F0"/></radialGradient><radialGradient id="radialGradient-3" cx="41.058%" cy="120.817%" r="31.698%" fx="41.058%" fy="120.817%"><stop offset="0%" stop-color="#F7F1EC"/><stop offset="58%" stop-color="#EDDED7"/><stop offset="100%" stop-color="#E8D5CD"/></radialGradient><linearGradient id="linearGradient-4" x1="48.947%" x2="50.136%" y1="88.241%" y2="31.611%"><stop offset="0%" stop-color="#F4F1EF"/><stop offset="100%" stop-color="#EEDDD2"/></linearGradient><linearGradient id="linearGradient-5" x1="-12.796%" x2="94.647%" y1="25.891%" y2="66.715%"><stop offset="0%" stop-color="#F7F1EC"/><stop offset="34%" stop-color="#EFDCD1"/><stop offset="75.4%" stop-color="#E6C7B7"/><stop offset="100%" stop-color="#E3BFAD"/></linearGradient><linearGradient id="linearGradient-6" x1="21.798%" x2="77.045%" y1="-23.041%" y2="126.704%"><stop offset="0%" stop-color="#FFF"/><stop offset="100%" stop-color="#FFF" stop-opacity="0"/></linearGradient><radialGradient id="radialGradient-7" cx="56.018%" cy="-2.832%" r="266.955%" fx="56.018%" fy="-2.832%"><stop offset="0%" stop-color="#FBE3D0"/><stop offset="30.1%" stop-color="#F7DBC6"/><stop offset="77.9%" stop-color="#EEC7AD"/><stop offset="100%" stop-color="#E3B092"/></radialGradient><linearGradient id="linearGradient-8" x1="15.711%" x2="89.747%" y1="-20%" y2="95.625%"><stop offset="0%" stop-color="#F7F1EC"/><stop offset="34%" stop-color="#EFDDD1"/><stop offset="75.4%" stop-color="#E6C9B7"/><stop offset="100%" stop-color="#E3C2AD"/></linearGradient><radialGradient id="radialGradient-9" cx="80.488%" cy="16.666%" r="265.263%" fx="80.488%" fy="16.666%"><stop offset="14.1%" stop-color="#FCE9DA"/><stop offset="35.6%" stop-color="#F9E1D0"/><stop offset="72.2%" stop-color="#F1CDB5"/><stop offset="81.6%" stop-color="#EEC7AD"/><stop offset="100%" stop-color="#E3B092"/></radialGradient><linearGradient id="linearGradient-10" x1="44.117%" x2="57.489%" y1="-12.265%" y2="111.832%"><stop offset="0%" stop-color="#F7F1EC"/><stop offset="34%" stop-color="#EFDCD1"/><stop offset="75.4%" stop-color="#E6C7B7"/><stop offset="100%" stop-color="#E3BFAD"/></linearGradient><radialGradient id="radialGradient-11" cx="-18.931%" cy="40.541%" r="68.974%" fx="-18.931%" fy="40.541%"><stop offset="0%" stop-color="#F7F1EC"/><stop offset="58%" stop-color="#EDDED7"/><stop offset="100%" stop-color="#E8D5CD"/></radialGradient><radialGradient id="radialGradient-12" cx="31.294%" cy="1.85%" r="134.018%" fx="31.294%" fy="1.85%"><stop offset="22.7%" stop-color="#FCECDC"/><stop offset="39.7%" stop-color="#F9E4D2"/><stop offset="68.7%" stop-color="#F1CFB7"/><stop offset="77.9%" stop-color="#EEC7AD"/><stop offset="100%" stop-color="#E3B092"/></radialGradient><linearGradient id="linearGradient-13" x1="36.602%" x2="59.7%" y1="-69.312%" y2="91.706%"><stop offset="0%" stop-color="#FFF"/><stop offset="26.6%" stop-color="#FDFDFD"/><stop offset="40.9%" stop-color="#F5F5F5"/><stop offset="52.2%" stop-color="#E8E7E7"/><stop offset="62%" stop-color="#D5D4D4"/><stop offset="70.8%" stop-color="#BCBBBB"/><stop offset="78.9%" stop-color="#9E9C9C"/><stop offset="86.5%" stop-color="#7A7778"/><stop offset="93.4%" stop-color="#514E4F"/><stop offset="100%" stop-color="#231F20"/></linearGradient><linearGradient id="linearGradient-14" x1="-.013%" x2="100.031%" y1="49.991%" y2="49.991%"><stop offset="0%" stop-color="#F7F1EC"/><stop offset="34%" stop-color="#EFDCD1"/><stop offset="75.4%" stop-color="#E6C7B7"/><stop offset="100%" stop-color="#E3BFAD"/></linearGradient><linearGradient id="linearGradient-15" x1="120.816%" x2="49.932%" y1="113.579%" y2="65.574%"><stop offset="0%" stop-color="#F7F1EC"/><stop offset="34%" stop-color="#EFDCD1"/><stop offset="75.4%" stop-color="#E6C7B7"/><stop offset="100%" stop-color="#E3BFAD"/></linearGradient><linearGradient id="linearGradient-16" x1="12.401%" x2="76.261%" y1="65.38%" y2="-18.983%"><stop offset="0%" stop-color="#F7F1EC"/><stop offset="34%" stop-color="#EFDCD1"/><stop offset="75.4%" stop-color="#E6C7B7"/><stop offset="100%" stop-color="#E3BFAD"/></linearGradient><linearGradient id="linearGradient-17" x1="-93.804%" x2="94.311%" y1="-25.474%" y2="67.577%"><stop offset="0%" stop-color="#FFF"/><stop offset="100%" stop-color="#FFF" stop-opacity="0"/></linearGradient><linearGradient id="linearGradient-18" x1="-55.104%" x2="125.794%" y1="-171.025%" y2="176.947%"><stop offset="0%" stop-color="#FFF"/><stop offset="26.6%" stop-color="#FDFDFD"/><stop offset="40.9%" stop-color="#F5F5F5"/><stop offset="52.2%" stop-color="#E8E7E7"/><stop offset="62%" stop-color="#D5D4D4"/><stop offset="70.8%" stop-color="#BCBBBB"/><stop offset="78.9%" stop-color="#9E9C9C"/><stop offset="86.5%" stop-color="#7A7778"/><stop offset="93.4%" stop-color="#514E4F"/><stop offset="100%" stop-color="#231F20"/></linearGradient><radialGradient id="radialGradient-19" cx="6.179%" cy="-6.624%" r="87.797%" fx="6.179%" fy="-6.624%"><stop offset="0%" stop-color="#FFF"/><stop offset="100%" stop-color="#FFF" stop-opacity="0"/></radialGradient><linearGradient id="linearGradient-20" x1="68.098%" x2="4.279%" y1="-.792%" y2="131.483%"><stop offset="0%" stop-color="#FFF"/><stop offset="100%" stop-color="#FFF" stop-opacity="0"/></linearGradient><linearGradient id="linearGradient-21" x1="28.466%" x2="66.337%" y1="22.033%" y2="72.056%"><stop offset="0%" stop-color="#FFF"/><stop offset="26.6%" stop-color="#FDFDFD"/><stop offset="40.9%" stop-color="#F5F5F5"/><stop offset="52.2%" stop-color="#E8E7E7"/><stop offset="62%" stop-color="#D5D4D4"/><stop offset="70.8%" stop-color="#BCBBBB"/><stop offset="78.9%" stop-color="#9E9C9C"/><stop offset="86.5%" stop-color="#7A7778"/><stop offset="93.4%" stop-color="#514E4F"/><stop offset="100%" stop-color="#231F20"/></linearGradient><radialGradient id="radialGradient-22" cx="50.005%" cy="49.969%" r="37.409%" fx="50.005%" fy="49.969%"><stop offset="14.1%" stop-color="#FCE9DA"/><stop offset="35.6%" stop-color="#F9E1D0"/><stop offset="72.2%" stop-color="#F1CDB5"/><stop offset="81.6%" stop-color="#EEC7AD"/><stop offset="100%" stop-color="#E3B092"/></radialGradient></defs><g><path fill="url(#radialGradient-1)" d="M249.952756,94.1354331 C249.952756,94.1354331 254.790551,87.1811024 255.496063,83.0488189 C256.302362,79.0173228 256.201575,76.6992126 254.085039,72.8692913 C253.27874,71.4582677 251.162205,69.3417323 247.634646,68.3338583 C245.316535,67.7291339 242.595276,67.5275591 240.277165,66.4188976 C236.951181,64.8062992 233.927559,63.0929134 233.625197,62.992126 C233.625197,62.992126 227.477165,57.2472441 219.716535,56.5417323 C219.716535,56.5417323 199.155906,24.3905512 159.546457,21.1653543 C159.546457,21.1653543 107.338583,13.1023622 72.6677165,67.9307087 C72.6677165,67.9307087 65.7133858,80.9322835 56.9448819,96.9574803 C47.9748031,113.788976 36.4850394,122.859843 29.7322835,127.092913 C4.33385827,137.272441 -2.21732283,157.732283 1.10866142,166.903937 C4.63622047,176.680315 14.0094488,184.037795 21.4677165,190.286614 C28.8251969,196.434646 36.384252,200.667717 44.5480315,205.606299 L45.1527559,206.009449 C83.0488189,225.965354 129.612598,225.159055 163.981102,210.746457 C179.703937,204.094488 193.007874,194.72126 202.48189,183.130709 C210.444094,173.455118 214.677165,162.872441 215.886614,151.886614 L215.987402,151.785827 C215.987402,151.785827 224.151181,146.24252 229.392126,139.691339 C234.834646,132.938583 237.051969,124.573228 237.051969,124.573228 C240.075591,120.64252 242.595276,116.913386 244.510236,113.184252 C244.409449,113.285039 250.255118,101.795276 249.952756,94.1354331 L249.952756,94.1354331 L249.952756,94.1354331 Z" opacity=".96"/><path fill="url(#radialGradient-2)" d="M141.807874,118.324409 C134.954331,122.859843 123.464567,129.411024 114.998425,130.922835 C111.773228,131.527559 108.749606,132.031496 105.524409,132.333858 C100.888189,132.938583 96.3527559,133.240945 91.7165354,133.44252 C87.080315,133.644094 82.6456693,133.44252 78.0094488,133.44252 C62.992126,133.845669 38.903937,128.604724 24.088189,134.148031 C11.1874016,138.985827 -1.81417323,159.748031 7.45826772,167.710236 C19.7543307,178.091339 43.7417323,172.548031 51.2,170.431496 C122.55748,148.661417 154.406299,108.951181 154.406299,108.951181 C154.406299,108.951181 148.762205,113.889764 141.807874,118.324409 L141.807874,118.324409 L141.807874,118.324409 Z"/><path fill="url(#radialGradient-3)" d="M40.2141732,173.858268 L43.4393701,171.540157 C24.3905512,176.075591 17.3354331,161.259843 27.4141732,151.080315 C20.3590551,153.398425 17.2346457,165.190551 22.0724409,170.834646 C13.807874,165.089764 20.4598425,144.629921 30.7401575,140.8 C20.5606299,141.505512 10.4818898,155.212598 14.5133858,165.896063 C8.76850394,158.840945 10.8850394,133.44252 52.207874,131.729134 C38.5007874,127.697638 6.2488189,130.217323 5.54330709,160.050394 C5.44251969,164.182677 6.2488189,166.198425 10.1795276,169.725984 C9.87716535,169.625197 17.6377953,177.083465 40.2141732,173.858268 L40.2141732,173.858268 L40.2141732,173.858268 Z" opacity=".66"/><path fill="url(#linearGradient-4)" d="M70.4503937,162.368504 C56.7433071,167.911811 41.7259843,173.555906 26.7086614,173.354331 C16.2267717,173.253543 2.72125984,169.12126 6.3496063,155.414173 C7.86141732,149.467717 11.792126,144.226772 16.4283465,140.296063 C31.3448819,127.697638 60.4724409,131.829921 77.4047244,136.667717 C54.0220472,126.689764 29.9338583,127.496063 15.7228346,136.667717 C8.26456693,141.505512 -4.33385827,159.445669 4.93858268,169.927559 C13.807874,179.905512 34.3685039,175.470866 40.3149606,174.059843 C107.43937,158.840945 156.925984,110.16063 156.925984,110.16063 C149.467717,116.006299 110.362205,146.343307 70.4503937,162.368504 L70.4503937,162.368504 Z"/><path fill="url(#linearGradient-5)" d="M121.045669,135.458268 C107.84252,145.234646 82.5448819,158.135433 62.6897638,164.888189 C55.2314961,160.251969 60.4724409,150.475591 79.5212598,142.815748 C87.584252,139.489764 98.0661417,136.667717 111.168504,134.651969 C111.067717,134.752756 122.759055,134.349606 121.045669,135.458268 L121.045669,135.458268 Z" opacity=".8"/><path fill="url(#linearGradient-6)" d="M193.007874,106.330709 C192.907087,94.4377953 185.247244,85.7700787 177.788976,77.1023622 C188.270866,108.548031 70.8535433,187.968504 11.5905512,177.285039 C76.0944882,214.677165 193.914961,172.447244 193.007874,106.330709 L193.007874,106.330709 Z"/><path fill="url(#radialGradient-7)" d="M231.206299,81.3354331 C235.03622,90.8094488 240.176378,110.765354 238.059843,122.658268 C239.370079,120.743307 241.990551,116.006299 242.897638,114.192126 C245.215748,108.951181 245.51811,104.113386 245.215748,100.787402 C244.409449,91.2125984 243.905512,81.7385827 239.470866,73.1716535 C240.176378,81.8393701 231.307087,81.3354331 231.206299,81.3354331 L231.206299,81.3354331 L231.206299,81.3354331 Z" opacity=".49"/><path fill="url(#linearGradient-8)" d="M249.952756,94.1354331 C250.154331,99.880315 246.425197,109.051969 246.425197,109.051969 C247.231496,107.03622 246.929134,103.609449 246.929134,101.492913 C247.029921,94.6393701 245.618898,87.7858268 243.502362,81.2346457 C241.486614,75.288189 239.168504,68.8377953 234.733858,64.2015748 C234.532283,64 233.222047,62.2866142 232.818898,62.2866142 C232.818898,62.2866142 245.215748,69.0393701 250.053543,94.0346457" opacity=".95"/><path fill="url(#radialGradient-9)" d="M226.570079,83.6535433 C226.066142,104.919685 216.592126,109.75748 210.645669,113.889764 C212.96378,118.929134 218.204724,138.280315 216.894488,149.770079 C219.615748,147.653543 224.352756,142.412598 227.275591,138.784252 C228.888189,136.667717 230.500787,134.148031 231.911811,131.325984 C232.113386,116.510236 230.80315,99.4771654 226.570079,83.6535433 L226.570079,83.6535433 Z" opacity=".49"/><path fill="url(#linearGradient-10)" d="M231.609449,136.466142 C233.625197,132.938583 236.144882,129.007874 236.951181,124.270866 C238.16063,117.014173 236.951181,108.548031 236.044094,102.500787 C231.004724,70.0472441 219.011024,43.0362205 180.409449,25.9023622 C174.866142,23.3826772 168.617323,21.6692913 162.469291,21.2661417 L161.864567,23.7858268 C166.80315,23.9874016 172.245669,25.3984252 176.982677,27.111811 C186.55748,30.4377953 197.341732,37.0897638 204.598425,44.0440945 C215.483465,54.223622 222.337008,68.4346457 226.469291,83.7543307 C230.702362,99.5779528 232.113386,116.510236 231.811024,131.527559 C231.811024,133.03937 231.811024,134.752756 231.609449,136.466142 L231.609449,136.466142 L231.609449,136.466142 Z" opacity=".8"/><path d="M156.32126,107.338583 C128.302362,50.9984252 97.4614173,11.3889764 97.4614173,11.3889764 C93.6314961,7.15590551 91.3133858,7.45826772 91.3133858,7.45826772 C91.3133858,7.45826772 90.5070866,7.55905512 88.592126,7.86141732 L87.2818898,8.26456693 C68.6362205,13.9086614 57.4488189,24.4913386 52.8125984,29.2283465 C51.4015748,30.5385827 50.696063,31.3448819 50.696063,31.3448819 C50.696063,31.3448819 49.0834646,32.9574803 50.192126,38.6015748 C50.192126,38.6015748 50.5952756,39.911811 51.4015748,42.5322835 C53.719685,49.5874016 56.4409449,56.6425197 59.4645669,63.496063 C64.8062992,75.9937008 70.5511811,88.2897638 77.0015748,100.485039 C86.3748031,118.324409 92.623622,130.015748 103.105512,147.149606 M156.32126,107.338583 C128.302362,50.9984252 97.4614173,11.3889764 97.4614173,11.3889764 C93.6314961,7.15590551 91.3133858,7.45826772 91.3133858,7.45826772 C91.3133858,7.45826772 90.5070866,7.55905512 88.592126,7.86141732 L87.2818898,8.26456693 C68.6362205,13.9086614 57.4488189,24.4913386 52.8125984,29.2283465 C51.4015748,30.5385827 50.696063,31.3448819 50.696063,31.3448819 C50.696063,31.3448819 49.0834646,32.9574803 50.192126,38.6015748 C50.192126,38.6015748 50.5952756,39.911811 51.4015748,42.5322835 C53.719685,49.5874016 56.4409449,56.6425197 59.4645669,63.496063 C64.8062992,75.9937008 70.5511811,88.2897638 77.0015748,100.485039 C86.3748031,118.324409 92.623622,130.015748 103.105512,147.149606"/><path fill="url(#radialGradient-11)" d="M161.76378,104.919685 C173.858268,92.623622 177.285039,76.3968504 177.285039,76.3968504 C173.152756,83.9559055 165.190551,90.9102362 160.755906,94.1354331 L161.76378,104.919685 L161.76378,104.919685 Z"/><path fill="url(#radialGradient-12)" d="M250.255118,70.7527559 C252.170079,71.5590551 254.790551,74.5826772 254.790551,79.9244094 C254.790551,83.3511811 251.968504,88.7937008 250.96063,90.607874 C250.053543,92.4220472 250.355906,91.5149606 250.355906,91.5149606 C249.045669,84.5606299 244.913386,75.8929134 241.990551,71.5590551 C245.316535,72.8692913 250.255118,70.7527559 250.255118,70.7527559 L250.255118,70.7527559 Z" opacity=".49"/><path fill="#47B0D4" d="M130.620472,128.806299 C144.932283,118.022047 156.422047,107.43937 156.422047,107.43937 C128.40315,51.0992126 97.5622047,11.4897638 97.5622047,11.4897638 C93.7322835,7.25669291 91.4141732,7.55905512 91.4141732,7.55905512 C91.4141732,7.55905512 90.607874,7.65984252 88.6929134,7.96220472 L87.3826772,8.36535433 C68.7370079,14.0094488 57.5496063,24.592126 52.9133858,29.3291339 C51.5023622,30.6393701 50.7968504,31.4456693 50.7968504,31.4456693 C50.7968504,31.4456693 49.184252,33.0582677 50.2929134,38.7023622 C50.2929134,38.7023622 50.696063,40.0125984 51.5023622,42.6330709 C53.8204724,49.688189 56.5417323,56.7433071 59.5653543,63.5968504 C64.9070866,76.0944882 70.6519685,88.3905512 77.1023622,100.585827 C86.4755906,118.425197 92.7244094,130.116535 103.206299,147.250394 C103.206299,146.847244 120.541732,136.768504 130.620472,128.806299 L130.620472,128.806299 Z"/><path fill="#FFF" d="M95.9496063,12.6992126 C93.1275591,9.67559055 91.615748,9.47401575 91.615748,9.47401575 L89.096063,9.87716535 L87.8866142,10.0787402 C68.9385827,15.823622 57.8519685,26.9102362 54.223622,30.4377953 C53.0141732,31.6472441 52.3086614,32.3527559 52.3086614,32.4535433 L52.4094488,32.4535433 L52.3086614,32.6551181 C52.207874,33.0582677 51.6031496,34.5700787 52.3086614,37.9968504 C52.3086614,37.9968504 52.711811,39.3070866 53.5181102,41.8267717 C55.6346457,48.176378 58.2551181,55.0299213 61.5811024,62.5889764 C66.8220472,74.8850394 72.6677165,87.2818898 78.9165354,99.4771654 C85.6692913,112.377953 90.607874,121.650394 96.5543307,131.829921 C96.9574803,113.083465 100.08189,77.7070866 115.703937,41.0204724 C104.516535,23.8866142 96.5543307,13.6062992 95.9496063,12.6992126 L95.9496063,12.6992126 Z" opacity=".5"/><path fill="url(#linearGradient-13)" d="M111.672441,126.488189 C111.672441,126.488189 102.097638,128 92.7244094,127.395276 L103.911811,146.141732 L112.982677,140.598425 C113.083465,140.699213 111.672441,126.488189 111.672441,126.488189 L111.672441,126.488189 Z" opacity=".46"/><path fill="url(#linearGradient-14)" d="M177.788976,77.1023622 C227.67874,130.31811 224.554331,211.451969 103.307087,221.329134 C164.08189,223.244094 205.707087,190.588976 213.064567,163.981102 C223.445669,126.488189 191.193701,88.088189 177.788976,77.1023622 L177.788976,77.1023622 Z" opacity=".8"/><path fill="url(#linearGradient-15)" d="M25.6,129.108661 C32.8566929,125.581102 53.1149606,123.162205 61.0771654,127.294488 C61.0771654,117.316535 44.6488189,108.548031 44.6488189,108.548031 L25.6,129.108661 L25.6,129.108661 Z" opacity=".8"/><path fill="url(#linearGradient-16)" d="M181.417323,26.2047244 C170.028346,24.3905512 157.732283,30.3370079 160.856693,96.2519685 C152.491339,77.2031496 158.135433,21.1653543 162.368504,21.3669291 C166.601575,21.5685039 179.401575,24.9952756 181.417323,26.2047244 L181.417323,26.2047244 L181.417323,26.2047244 Z" opacity=".8"/><path fill="#B84E41" d="M45.0519685,114.998425 C35.376378,126.085039 25.6,129.108661 25.6,129.108661 C16.1259843,118.122835 7.96220472,107.84252 9.77637795,96.6551181 C12.4976378,79.5212598 29.6314961,77.0015748 29.6314961,77.0015748 C36.6866142,70.8535433 38.5007874,74.784252 38.5007874,74.784252 C98.8724409,85.7700787 45.0519685,114.998425 45.0519685,114.998425 L45.0519685,114.998425 Z"/><path fill="#FF6D5A" d="M63.6976378,73.4740157 C55.9370079,70.5511811 46.3622047,68.4346457 38.1984252,66.7212598 C27.4141732,64.503937 18.1417323,72.4661417 11.3889764,86.6771654 C8.86929134,92.2204724 8.06299213,97.3606299 8.86929134,102.903937 C9.47401575,106.532283 12.296063,111.370079 15.2188976,115.703937 C9.97795276,107.540157 7.45826772,100.08189 15.9244094,101.392126 C15.9244094,101.392126 42.8346457,106.633071 90.607874,153.499213 L103.105512,146.746457 C82.8472441,114.091339 71.8614173,90.3055118 63.6976378,73.4740157 L63.6976378,73.4740157 Z"/><path fill="url(#linearGradient-17)" d="M39.6094488,108.548031 C26.4062992,101.795276 16.9322835,98.9732283 16.3275591,98.8724409 C14.1102362,98.3685039 10.6834646,97.4614173 9.57480315,100.888189 C10.6834646,84.8629921 24.592126,66.4188976 36.2834646,67.6283465 C37.0897638,67.7291339 38.903937,68.1322835 39.6094488,68.3338583 C42.9354331,69.0393701 46.5637795,70.5511811 50.3937008,71.6598425 C47.3700787,82.1417323 43.1370079,94.9417323 39.6094488,108.548031 L39.6094488,108.548031 Z"/><path fill="url(#linearGradient-18)" d="M103.206299,146.847244 C103.206299,146.847244 100.686614,148.459843 97.4614173,150.173228 C94.1354331,151.987402 92.4220472,152.692913 92.4220472,152.692913 C83.6535433,143.924409 83.7543307,143.924409 69.1401575,131.325984 C82.8472441,132.132283 93.2283465,130.116535 93.2283465,130.116535 L103.206299,146.847244 L103.206299,146.847244 Z" opacity=".65"/><path fill="url(#radialGradient-19)" d="M39.6094488,108.548031 L39.6094488,112.377953 C29.3291339,106.028346 16.8314961,100.686614 13.2031496,101.392126 C7.96220472,102.500787 14.1102362,112.377953 15.2188976,114.393701 C10.280315,106.431496 8.36535433,101.392126 10.6834646,99.2755906 C11.5905512,98.4692913 13.4047244,98.1669291 16.1259843,98.8724409 C23.2818898,100.888189 34.6708661,106.028346 39.6094488,108.548031 L39.6094488,108.548031 L39.6094488,108.548031 Z" opacity=".58"/><path fill="#509D9E" d="M180.611024,25.9023622 C180.611024,25.9023622 174.56378,23.6850394 171.237795,22.9795276 C168.012598,22.2740157 162.267717,21.4677165 162.267717,21.4677165 C158.63937,34.8724409 156.522835,59.0614173 161.662992,104.919685 C161.662992,104.919685 139.993701,123.968504 112.982677,140.8 C112.982677,140.8 103.004724,69.5433071 127.899213,20.1574803 C127.899213,20.1574803 133.543307,7.55905512 143.924409,2.62047244 C143.924409,2.62047244 173.354331,-7.65984252 179.401575,15.5212598 C181.014173,21.7700787 181.215748,26.0031496 181.215748,26.0031496 L180.611024,25.9023622 L180.611024,25.9023622 Z"/><path fill="#66C8CA" d="M181.417323,26.2047244 C181.417323,26.2047244 181.316535,21.4677165 179.60315,15.2188976 C173.555906,-7.96220472 144.125984,2.31811024 144.125984,2.31811024 C133.845669,7.05511811 128.100787,19.8551181 128.100787,19.8551181 C103.307087,69.2409449 113.184252,140.497638 113.184252,140.497638 C140.296063,123.565354 161.76378,104.617323 161.76378,104.617323 C151.382677,12.8 169.12126,4.43464567 174.56378,7.86141732 C180.006299,11.288189 180.812598,26.2047244 180.812598,26.2047244 L181.417323,26.2047244 L181.417323,26.2047244 Z"/><path fill="url(#linearGradient-20)" d="M180.207874,25.8015748 C180.207874,25.8015748 179.60315,23.1811024 178.292913,16.9322835 C173.75748,-5.54330709 143.52126,3.93070866 143.52126,3.93070866 C134.349606,8.66771654 128.503937,21.6692913 128.503937,21.6692913 C108.648819,61.8834646 111.974803,116.611024 113.587402,134.047244 C138.683465,111.672441 152.088189,91.2125984 157.530709,83.5527559 C151.080315,12.1952756 167.609449,4.93858268 172.648819,8.16377953 C173.858268,8.86929134 176.88189,10.0787402 179.300787,25.3984252 C180.006299,25.6 180.207874,25.8015748 180.207874,25.8015748 L180.207874,25.8015748 Z" opacity=".4"/><path fill="url(#linearGradient-21)" d="M113.788976,134.148031 C114.192126,137.776378 114.393701,139.792126 114.393701,139.792126 C140.598425,123.36378 160.050394,106.028346 160.050394,106.028346 C159.546457,101.896063 159.546457,99.7795276 159.244094,95.1433071 C154.507087,101.291339 132.233071,120.440945 113.788976,134.148031 L113.788976,134.148031 Z" opacity=".58"/><path fill="url(#radialGradient-22)" d="M207.52126,152.793701 C200.768504,202.683465 79.1181102,231.307087 11.6913386,181.820472 C83.7543307,254.992126 204.900787,212.056693 207.52126,152.793701 L207.52126,152.793701 Z" opacity=".3"/></g></svg>