<svg xmlns="http://www.w3.org/2000/svg" xmlns:xlink="http://www.w3.org/1999/xlink" width="256" height="243" preserveAspectRatio="xMidYMid" version="1.1" viewBox="0 0 256 243"><g><path fill="#82C0F4" d="M191.892,242.859 L0,214.112 L128.888,138.364 L191.892,242.859"/><path fill="#D7E9F9" d="M256,214.539 L191.892,242.859 L128.223,141.074 L131.071,140.469 L252.638,210.364 L256,214.539"/><path fill="#A7CCEB" d="M192.922,105.118 L256,214.539 L128.223,141.074 L129.294,137.594 L188.638,104.614 L192.922,105.118"/><path fill="#ADCEEB" d="M0,214.112 L62.907,104.859 L64.51,102.886 L124.888,136.364 L128.223,141.074 L0,214.112"/><path fill="#67AAD6"/><path fill="#67AAD6" d="M80.862,0.844 L83.888,5.364 L129.143,139.357 L128.223,141.074 L62.907,104.859 L80.862,0.844"/><path fill="#E3F7FF" d="M192.922,105.118 L128.223,141.074 L80.862,0.844 L192.922,105.118"/></g></svg>