<svg xmlns="http://www.w3.org/2000/svg" xmlns:xlink="http://www.w3.org/1999/xlink" width="256" height="227" preserveAspectRatio="xMidYMid" version="1.1" viewBox="0 0 256 227"><g><path fill="#E6E6E1" d="M0.832426495,0.4518607 L255.680619,0.4518607 L255.680619,226.093573 L0.832426495,226.093573 L0.832426495,0.4518607 L0.832426495,0.4518607 Z"/><path fill="#D8D8D3" d="M255.680619,0.4518607 L0.832426495,0.4518607 L128.263888,186.691044 L255.680619,0.4518607"/><path fill="#B4B6B4" d="M101.299301,226.093573 L155.225528,226.093573 L128.263888,186.691044 L101.299301,226.093573"/><path fill="#1A1918" d="M128.302186,118.827369 L73.9399525,39.0383522 L73.9399525,107.529522 L104.98178,153.124508 L128.249158,118.895126 L128.302186,118.827369"/><path fill="#ED9D4A" d="M128.302186,118.827369 L151.713917,153.198158 L182.558363,108.101043 L182.558363,39.0383522 L128.302186,118.827369"/><path fill="#BB7731" d="M128.249158,118.895126 L104.98178,153.124508 L128.325754,187.39808 L151.713917,153.198158 L128.302186,118.827369 L128.249158,118.895126"/><path fill="#4CB2D4" d="M35.332839,187.489406 L73.9399525,187.489406 L73.9399525,107.529522 L35.332839,50.8605839 L35.332839,187.489406"/><path fill="#1B82AD" d="M35.332839,39.0383522 L35.332839,50.8605839 L73.9399525,107.529522 L73.9399525,39.0383522 L35.332839,39.0383522"/><path fill="#C02439" d="M182.558363,108.101043 L182.558363,187.489406 L221.150747,187.489406 L221.150747,51.6825133 L182.558363,108.101043"/><path fill="#8F202F" d="M221.150747,39.0383522 L182.558363,39.0383522 L182.558363,108.101043 L221.150747,51.6825133 L221.150747,39.0383522"/></g></svg>