<svg xmlns="http://www.w3.org/2000/svg" xmlns:xlink="http://www.w3.org/1999/xlink" width="256" height="313" preserveAspectRatio="xMidYMid" version="1.1" viewBox="0 0 256 313"><g><polygon fill="#28BEE2" points="225.442 126.697 255.392 126.697 255.392 60.626 194.766 0 194.766 126.697"/><polygon fill="#43C3D8" points="225.442 135.501 194.766 135.501 194.766 196.127 255.392 135.501"/><polygon fill="#1C4FA1" points="59.265 60.626 59.265 89.85 59.265 222.719 59.265 312.569 119.891 252.669 119.891 222.719 119.891 89.85 119.891 0"/><polygon fill="#F0552B" points="225.442 135.501 128.694 135.501 128.694 196.127 164.816 196.127 194.766 196.127 255.392 135.501"/><polygon fill="#F0552B" points="49.735 146.392 0 196.127 30.676 196.127 49.735 196.127"/><rect width="57.177" height="60.626" x="128.694" y="0" fill="#F8CF0C"/></g></svg>