<svg xmlns="http://www.w3.org/2000/svg" xmlns:xlink="http://www.w3.org/1999/xlink" width="256" height="256" preserveAspectRatio="xMidYMid" version="1.1" viewBox="0 0 256 256"><g><path fill="#16A085" d="M0,256 L256,256 L256,0 L0,0 L0,256 Z"/><path fill="#FFF" d="M51.2,89.6 L131.2,89.6 L131.2,51.2 L51.2,51.2 L51.2,89.6 Z M32,147.2 L131.149,147.2 L131.149,108.8 L32,108.8 L32,147.2 Z M51.2,208 L131.2,208 L131.2,169.6 L51.2,169.6 L51.2,208 Z"/><path fill="#8ACFC2" d="M131.2,89.6 L179.303,89.6 L179.303,51.2 L131.2,51.2 L131.2,89.6 Z M131.2,147.2 L208,147.2 L208,108.8 L131.2,108.8 L131.2,147.2 Z M131.2,208 L227.2,208 L227.2,169.6 L131.2,169.6 L131.2,208 Z"/></g></svg>