<svg xmlns="http://www.w3.org/2000/svg" xmlns:xlink="http://www.w3.org/1999/xlink" width="256" height="207" preserveAspectRatio="xMidYMid" version="1.1" viewBox="0 0 256 207"><defs><linearGradient id="linearGradient-1" x1="0%" x2="0%" y1="0%" y2="100%"><stop offset="0%" stop-color="#3CB579"/><stop offset="100%" stop-color="#004A4A"/></linearGradient></defs><g><path fill="#E6E6E6" d="M0,10.8935197 C3.62830719e-15,4.87719489 4.87719489,0 10.8935197,0 L245.10648,0 C251.122805,0 256,4.87719489 256,10.8935197 L256,196.085152 C256,202.101476 251.122805,206.978671 245.10648,206.978671 L10.8935197,206.978671 C4.87719489,206.978671 7.25661438e-15,202.101476 7.25661438e-15,196.085152 L0,10.8935197 Z"/><path fill="url(#linearGradient-1)" d="M4,13.5480999 C4,7.72254518 8.72254518,3 14.5480999,3 L241.334463,3 C247.160017,3 251.882563,7.72254518 251.882563,13.5480999 L251.882563,192.867539 C251.882563,198.693093 247.160017,203.415638 241.334463,203.415638 L14.5480999,203.415638 C8.72254518,203.415638 4,198.693093 4,192.867539 L4,13.5480999 Z"/><g transform="translate(72.000000, 70.000000)"><rect width="110.756" height="63.289" x=".989" y=".989" fill="#000" fill-opacity=".5" rx=".5"/><path fill="#FFF" d="M16.8112023,32.6335104 L48.4558184,16.8112023 L48.4558184,48.4558184 L16.8112023,32.6335104 Z"/><path fill="#FFF" d="M95.9227426,32.6335104 L64.2781265,16.8112023 L64.2781265,48.4558184 L95.9227426,32.6335104 Z"/></g></g></svg>