<svg xmlns="http://www.w3.org/2000/svg" xmlns:xlink="http://www.w3.org/1999/xlink" width="255" height="263" preserveAspectRatio="xMidYMid" version="1.1" viewBox="0 0 255 263"><g><polygon fill="#1159CC" points="254.219 20.234 196.026 53.47 194.387 74.088 150.198 173.855 123.93 191.203 127.112 262.803 176.645 234.251 254.219 44.304"/><polygon fill="#1159CC" points="92.45 56.933 92.45 34.051 92.212 33.915 53.729 53.017 55.371 76.051 103.403 180.598 129.424 165.888 127.112 137.801"/><polygon fill="#127EFF" points="219.557 0 161.809 33.814 161.775 33.814 161.775 33.848 161.775 33.848 161.775 33.848 161.775 56.933 127.112 137.801 127.112 164.825 103.993 178.235 57.788 74.146 57.788 53.81 92.45 33.848 34.668 0 .006 20.234 .006 45.017 78.022 234.489 127.112 262.803 127.112 191.645 150.198 178.235 149.926 178.065 196.437 74.146 196.437 53.844 196.437 53.81 254.219 20.234"/></g></svg>